<svg width="206" height="208" viewBox="0 0 206 208" fill="none" xmlns="http://www.w3.org/2000/svg">
<path d="M105.184 20.8113C103.31 21.0788 97.9532 22.5499 93.1325 24.021C71.1715 30.8416 55.772 47.8263 49.3444 72.0327C46.1306 84.2028 46.2645 114.829 49.4784 126.865C56.1738 151.473 72.7784 167.655 98.4888 174.609C110.407 177.819 138.527 177.819 150.713 174.475C176.29 167.521 192.894 150.536 199.857 124.19C201.464 118.038 202 110.415 202 98.1115C201.866 70.4279 195.974 53.1757 182.182 39.2671C168.389 25.4921 151.115 19.7414 124.735 20.0089C115.763 20.1426 107.059 20.5438 105.184 20.8113ZM137.456 62.1361C140 63.4735 142.679 66.5495 144.419 70.4279C147.098 76.0448 147.365 78.987 147.365 98.7802C147.365 118.172 147.098 121.515 144.687 126.063C140.402 134.622 136.117 136.895 124.601 136.895C113.085 136.895 108.8 134.622 104.515 126.063C102.238 121.515 101.837 118.172 101.837 100.118C101.837 72.0327 104.515 65.0784 116.834 60.5313C122.726 58.3915 131.43 58.9264 137.456 62.1361Z" fill="#F74D00"/>
<path d="M197.636 177.727C195.394 177.727 193.47 176.924 191.864 175.318C190.258 173.712 189.455 171.788 189.455 169.545C189.455 167.303 190.258 165.379 191.864 163.773C193.47 162.167 195.394 161.364 197.636 161.364C199.879 161.364 201.803 162.167 203.409 163.773C205.015 165.379 205.818 167.303 205.818 169.545C205.818 171.03 205.439 172.394 204.682 173.636C203.955 174.879 202.97 175.879 201.727 176.636C200.515 177.364 199.152 177.727 197.636 177.727Z" fill="white"/>
<path d="M49.3538 1.57354C30.6372 6.58572 21.7246 18.8377 20.3877 40.78L19.7192 51.1385H9.91532H0V66.7319V82.3254H10.0267H20.0535V129.663V177H41.778H63.5026V129.663C63.5026 103.599 63.8368 82.4368 64.3939 82.4368C64.8395 82.5482 71.3012 82.5482 78.8769 82.4368L92.4687 82.3254V66.7319V51.1385H77.9857H63.5026V45.0125C63.5026 37.6613 66.2878 33.9857 72.9723 32.6491C76.6488 31.9808 85.7842 33.206 90.2406 34.9881C91.6889 35.545 92.3573 33.0946 94.2513 19.9515C95.4767 11.2638 96.2566 4.02394 95.9224 3.80117C95.4767 3.57841 91.3546 2.68736 86.6755 1.68492C76.2031 -0.542717 57.2638 -0.54272 49.3538 1.57354Z" fill="white"/>
</svg>
