<svg width="113" height="33" viewBox="0 0 113 33" fill="none" xmlns="http://www.w3.org/2000/svg">
<path d="M21.9225 0.0793252C20.3441 0.313166 19.2138 1.26801 18.8046 2.69054C18.6487 3.21668 18.5123 3.84026 18.5123 4.05461C18.5123 5.59406 19.74 7.26991 21.143 7.65965C24.3194 8.53655 27.1254 6.82172 27.067 4.03512C27.028 1.24853 24.904 -0.388355 21.9225 0.0793252Z" fill="white"/>
<path d="M8.6326 1.54089C5.35884 2.41779 3.7999 4.56133 3.56606 8.4002L3.44914 10.2125H1.73432H0V12.9406V15.6687H1.7538H3.5076V23.9506V32.2324H7.30751H11.1074V23.9506C11.1074 19.3907 11.1659 15.6882 11.2633 15.6882C11.3413 15.7077 12.4715 15.7077 13.7966 15.6882L16.174 15.6687V12.9406V10.2125H13.6407H11.1074V9.1407C11.1074 7.85457 11.5946 7.21151 12.7638 6.97767C13.4068 6.86075 15.0047 7.07511 15.7842 7.38689C16.0375 7.48433 16.1545 7.05562 16.4857 4.75619C16.7001 3.23623 16.8365 1.96959 16.778 1.93062C16.7001 1.89165 15.9791 1.73576 15.1606 1.56038C13.3289 1.17064 10.0162 1.17064 8.6326 1.54089Z" fill="white"/>
<path d="M106.3 4.58079C105.871 4.65873 104.234 4.91206 102.656 5.1459L99.7718 5.57461V7.28943C99.7718 8.2248 99.7134 9.27708 99.6549 9.60835C99.538 10.1735 99.4795 10.2124 98.6026 10.2124C98.096 10.2124 97.3945 10.2709 97.0632 10.3294L96.4591 10.4463V13.0575V15.6687H98.1155H99.7718V21.6511C99.7524 28.7443 99.8303 29.173 101.428 30.7904C102.929 32.3298 104.078 32.7001 107.372 32.7001C109.652 32.7001 110.197 32.6221 111.464 32.2129C112.399 31.9011 112.925 31.6283 112.906 31.4334C112.906 31.2775 112.73 30.1278 112.536 28.8612L112.204 26.5423L111.678 26.6787C110.548 26.9515 108.911 27.01 108.365 26.7956C108.073 26.6592 107.703 26.3279 107.567 26.0356C107.255 25.3926 107.06 19.7609 107.274 17.3251L107.411 15.6687H109.924H112.438V12.9406V10.2124H109.807H107.196L107.138 7.32841L107.079 4.44438L106.3 4.58079Z" fill="#F74D00"/>
<path d="M35.719 5.10684L32.5622 5.59401L32.5037 7.85446L32.4453 10.1149L30.8474 10.2708L29.23 10.4462L29.3079 12.2195C29.3469 13.2133 29.3859 14.3825 29.4054 14.8307L29.4248 15.6491L30.9448 15.7076L32.4453 15.7661L32.5427 22.0018C32.6402 28.0427 32.6596 28.2765 33.1078 29.2508C33.6924 30.5565 34.9006 31.6672 36.3621 32.2518C37.3559 32.6415 37.8626 32.7 40.0451 32.7C42.1497 32.7195 42.8122 32.6415 43.9424 32.2908C44.7024 32.0374 45.4039 31.7841 45.5208 31.7062C45.6767 31.5892 45.6378 30.8682 45.3455 29.056L44.9362 26.5422L44.4296 26.6786C44.1568 26.7566 43.3578 26.854 42.6368 26.9124C41.3702 27.0099 41.3117 26.9904 40.7271 26.4253L40.1425 25.8407V20.7547V15.6686H42.5784H45.0142V12.9405V10.2124H42.5978H40.201L40.0646 9.47186C40.0061 9.08212 39.9477 7.81549 39.9477 6.64629V4.56121L39.4215 4.5807C39.1097 4.60019 37.4534 4.83403 35.719 5.10684Z" fill="white"/>
<path d="M55.3422 9.95911C55.0694 9.99809 54.29 10.2124 53.5884 10.4268C50.3926 11.4206 48.1517 13.8954 47.2163 17.4225C46.7486 19.1958 46.7681 23.6583 47.2358 25.4121C48.2101 28.9976 50.6265 31.3555 54.3679 32.3688C56.1022 32.8365 60.1944 32.8365 61.9677 32.3493C65.6897 31.336 68.106 28.8612 69.1193 25.0223C69.3532 24.1259 69.4311 23.0152 69.4311 21.2224C69.4116 17.1887 68.5542 14.6749 66.5471 12.6483C64.54 10.6411 62.0262 9.80322 58.1873 9.84219C56.8817 9.86168 55.6151 9.92014 55.3422 9.95911ZM60.0385 15.9805C60.4088 16.1754 60.7985 16.6236 61.0518 17.1887C61.4416 18.0071 61.4805 18.4358 61.4805 21.3199C61.4805 24.1454 61.4416 24.6326 61.0908 25.2951C60.4672 26.5423 59.8437 26.8736 58.1678 26.8736C56.492 26.8736 55.8684 26.5423 55.2448 25.2951C54.9135 24.6326 54.8551 24.1454 54.8551 21.5147C54.8551 17.4225 55.2448 16.4092 57.0376 15.7467C57.895 15.4349 59.1616 15.5128 60.0385 15.9805Z" fill="#F74D00"/>
<path d="M18.9021 21.2224V32.2324H22.702H26.5019V21.2224V10.2125H22.702H18.9021V21.2224Z" fill="white"/>
<path d="M72.3346 18.6307C72.393 26.8735 72.4125 27.0879 72.8412 28.1597C74.1079 31.3165 76.5242 32.8365 80.2852 32.856C82.8574 32.856 84.9814 31.9985 86.6768 30.2642L87.3004 29.6212V30.615C87.3004 32.3103 87.125 32.2324 90.73 32.2324H93.9258V21.2224V10.2124H90.1259H86.326V17.4615C86.326 24.4182 86.3065 24.7495 85.9363 25.3731C85.3517 26.3279 84.0656 26.8346 82.5066 26.7371C81.6492 26.6787 81.1621 26.5423 80.8503 26.2889C79.9344 25.451 79.8954 25.1003 79.8954 17.4225V10.2124H76.076H72.2761L72.3346 18.6307Z" fill="#F74D00"/>
</svg>
